<?xml version="1.0" standalone="no"?>
<!DOCTYPE svg PUBLIC "-//W3C//DTD SVG 20010904//EN"
 "http://www.w3.org/TR/2001/REC-SVG-20010904/DTD/svg10.dtd">
<svg version="1.0" xmlns="http://www.w3.org/2000/svg"
 width="2000.000000pt" height="2000.000000pt" viewBox="0 0 2000.000000 2000.000000"
 preserveAspectRatio="xMidYMid meet">
<metadata>
Created by potrace 1.11, written by Peter Selinger 2001-2013
</metadata>
<g transform="translate(0.000000,2000.000000) scale(0.100000,-0.100000)"
fill="#000000" stroke="none">
<path d="M9355 12424 c-419 -98 -552 -146 -811 -293 -156 -90 -408 -260 -484
-328 -64 -57 -174 -139 -216 -161 -21 -11 -22 -9 -20 41 2 101 -57 165 -166
175 -81 8 -110 -33 -123 -173 -4 -38 -11 -90 -17 -115 -5 -25 -13 -79 -18
-120 -12 -101 -38 -157 -109 -234 -122 -131 -164 -274 -207 -691 -23 -230 -21
-415 5 -542 44 -211 149 -438 215 -463 14 -5 45 -3 82 6 61 14 94 40 94 76 0
11 4 27 9 37 7 13 2 29 -20 62 -64 97 -86 198 -69 322 17 122 47 196 100 250
26 26 54 47 62 47 16 0 88 -73 88 -89 0 -5 -17 -13 -37 -18 -35 -8 -39 -13
-65 -83 -21 -58 -38 -84 -73 -116 -29 -28 -45 -50 -45 -66 0 -44 44 -64 71
-32 7 9 29 23 48 32 44 21 109 105 117 152 9 48 17 56 90 91 54 25 73 42 117
102 30 40 89 103 133 141 43 39 113 102 155 140 132 123 190 146 262 106 34
-20 53 -23 124 -21 71 1 87 -1 112 -20 23 -17 37 -20 65 -15 29 6 37 3 46 -13
6 -11 30 -32 54 -46 72 -42 77 -52 81 -157 4 -112 28 -232 95 -478 65 -241 64
-235 41 -300 -49 -137 -105 -258 -133 -286 -17 -18 -28 -40 -26 -50 5 -26 61
-35 131 -22 32 6 95 8 140 5 99 -7 172 7 204 39 22 22 23 28 16 113 -6 92 6
198 33 295 8 27 14 67 14 89 0 41 30 201 52 275 l13 43 109 -147 c60 -81 127
-177 148 -214 39 -68 68 -170 68 -247 0 -24 7 -48 16 -57 20 -20 73 -20 102 0
21 14 26 14 65 -5 94 -44 154 -32 161 33 2 16 12 33 22 38 54 29 59 86 13 144
-32 40 -107 154 -130 195 -36 68 -112 303 -124 389 -8 52 -24 122 -36 155 -17
50 -28 65 -60 83 -95 55 -147 131 -135 198 8 42 -8 154 -29 198 -9 19 -48 70
-85 113 -121 137 -191 277 -218 438 -14 84 -14 106 8 351 28 322 25 487 -11
582 -25 69 -23 68 -114 46z m-1580 -1590 c18 -7 45 -55 45 -79 0 -25 -55 -75
-83 -75 -41 0 -77 36 -77 78 0 62 55 98 115 76z"/>
<path d="M7685 10790 c-15 -17 -16 -24 -7 -46 10 -20 18 -25 44 -22 35 3 55
27 44 53 -5 13 -9 15 -20 6 -10 -8 -16 -8 -25 2 -6 8 -8 17 -4 20 3 4 2 7 -4
7 -5 0 -18 -9 -28 -20z"/>
<path d="M11705 11251 c-110 -10 -163 -24 -238 -63 -110 -59 -170 -155 -188
-299 -18 -152 -27 -188 -58 -233 -17 -24 -47 -54 -66 -66 -57 -35 -31 -36 35
-2 67 36 92 33 129 -14 20 -25 21 -37 21 -258 0 -179 -5 -259 -20 -358 -46
-298 -101 -443 -217 -577 -74 -84 -80 -118 -30 -155 25 -19 42 -21 145 -21 64
0 153 4 197 7 l80 7 -42 -19 c-80 -36 -49 -80 71 -101 184 -31 342 20 370 121
31 107 100 281 167 416 76 152 81 166 81 228 0 53 -5 75 -26 113 -62 112 -87
174 -110 275 -32 143 -25 177 66 311 34 49 43 57 71 57 90 0 147 45 147 118 0
17 5 32 11 32 6 0 43 24 82 52 46 34 72 48 75 40 10 -30 55 -72 77 -72 30 0
62 33 71 74 3 17 26 67 49 111 45 83 95 213 95 244 0 17 -22 19 -357 25 -197
3 -412 8 -478 10 -66 2 -160 1 -210 -3z m-119 -1869 c-13 -63 -26 -116 -29
-118 -14 -15 8 178 27 226 31 82 32 31 2 -108z"/>
<path d="M6515 8791 c-55 -24 -75 -84 -75 -223 l0 -98 -39 0 c-50 0 -99 -18
-111 -40 -17 -31 -12 -106 9 -131 14 -18 31 -23 80 -27 l61 -4 0 -182 c0 -290
21 -368 115 -415 42 -22 63 -26 135 -26 98 1 139 17 171 68 39 62 8 157 -51
157 -111 0 -120 18 -120 235 l0 165 64 0 c54 0 70 4 93 24 24 21 28 32 28 75
0 74 -24 94 -115 99 l-70 4 0 109 c0 116 -11 159 -48 193 -24 21 -96 30 -127
17z"/>
<path d="M8782 8785 c-67 -30 -67 -33 -67 -570 0 -440 1 -483 18 -512 43 -80
155 -85 211 -10 19 26 21 46 27 245 5 191 8 223 26 264 31 69 90 90 129 47 17
-19 19 -43 24 -273 3 -163 9 -258 17 -271 48 -84 177 -85 216 -2 24 50 25 516
2 596 -38 125 -189 203 -302 156 -45 -19 -70 -40 -94 -80 -19 -30 -19 -30 -19
130 -1 180 -8 228 -42 261 -30 31 -101 40 -146 19z"/>
<path d="M10414 8786 c-50 -22 -64 -66 -64 -199 l0 -115 -60 -4 c-69 -5 -97
-24 -106 -74 -7 -40 11 -100 34 -110 9 -4 42 -10 72 -13 l55 -6 5 -235 c5
-217 7 -238 27 -276 32 -59 74 -91 140 -104 106 -22 226 10 252 67 14 31 14
85 -1 118 -11 26 -20 29 -92 39 -74 10 -76 16 -76 216 l0 178 71 4 c60 3 74 8
90 27 21 25 26 99 9 131 -13 24 -61 40 -120 40 l-47 0 -6 120 c-8 138 -21 174
-72 196 -42 17 -71 17 -111 0z"/>
<path d="M12764 8786 c-45 -20 -64 -53 -64 -108 0 -59 16 -96 51 -114 34 -17
108 -18 143 -3 60 28 75 155 24 205 -30 31 -108 41 -154 20z"/>
<path d="M7252 8459 c-70 -13 -142 -59 -174 -108 -48 -77 -53 -103 -53 -301 0
-172 2 -189 23 -235 29 -63 64 -100 123 -130 168 -86 473 -33 525 91 21 49 17
82 -12 111 -23 23 -31 25 -94 21 -65 -3 -70 -5 -119 -51 -43 -40 -56 -47 -91
-47 -73 0 -122 78 -108 171 l3 24 195 5 c107 3 202 9 212 13 30 15 41 63 36
161 -6 115 -37 180 -105 226 -78 51 -240 73 -361 49z m198 -194 c17 -18 25
-40 28 -80 l5 -56 -104 3 -104 3 1 53 c2 75 29 102 99 102 42 0 56 -5 75 -25z"/>
<path d="M8096 8460 c-110 -20 -190 -90 -221 -192 -21 -73 -21 -366 1 -430 47
-140 210 -217 400 -190 169 24 258 93 279 220 14 85 -22 122 -120 122 -96 0
-134 -26 -135 -93 0 -54 -35 -87 -93 -87 -34 0 -49 6 -68 26 -23 25 -24 31
-27 208 -4 207 1 221 70 233 75 12 118 -26 118 -103 0 -48 43 -74 125 -74 42
0 70 6 93 20 31 19 32 22 32 85 0 160 -109 249 -318 260 -48 2 -109 0 -136 -5z"/>
<path d="M11118 8461 c-69 -14 -130 -61 -163 -126 -30 -58 -30 -59 -33 -257
-3 -156 0 -209 12 -251 35 -119 116 -182 236 -182 79 0 121 22 156 80 l24 40
6 -32 c19 -98 166 -127 221 -44 23 34 23 37 23 358 0 283 -2 330 -17 360 -29
61 -116 80 -180 38 -22 -15 -32 -31 -48 -80 -5 -17 -9 -16 -27 17 -36 63 -125
96 -210 79z m184 -218 c37 -40 48 -84 48 -187 0 -154 -29 -216 -102 -216 -65
0 -73 24 -73 215 0 137 3 165 18 188 24 37 74 37 109 0z"/>
<path d="M11864 8455 c-59 -30 -59 -28 -62 -520 -2 -247 0 -474 3 -503 12 -94
77 -140 165 -113 68 20 74 41 80 255 l5 189 25 -39 c35 -54 83 -79 150 -78
109 0 188 51 231 147 22 49 23 64 24 262 0 198 -1 213 -23 260 -41 88 -103
136 -193 150 -86 13 -171 -29 -200 -96 l-13 -32 -10 43 c-7 27 -21 51 -37 63
-36 26 -106 32 -145 12z m351 -215 c12 -22 15 -65 15 -185 0 -190 -9 -215 -76
-215 -34 0 -52 16 -80 70 -23 44 -26 210 -5 283 16 56 41 77 93 77 31 0 40 -5
53 -30z"/>
<path d="M12764 8456 c-61 -27 -64 -48 -64 -401 0 -276 2 -322 17 -352 30 -65
135 -83 189 -32 39 36 46 103 42 416 -3 256 -5 292 -21 321 -30 55 -100 75
-163 48z"/>
<path d="M13272 8459 c-20 -6 -40 -22 -52 -42 -19 -30 -20 -52 -20 -363 0
-328 0 -331 23 -365 28 -43 79 -58 136 -41 70 21 75 40 81 267 5 167 8 206 23
233 22 39 84 71 140 72 80 0 117 42 117 130 0 70 -16 98 -62 111 -78 21 -144
-26 -197 -141 l-30 -65 -1 52 c0 76 -25 132 -66 149 -38 16 -46 16 -92 3z"/>
</g>
</svg>
