<?xml version="1.0" standalone="no"?>
<!DOCTYPE svg PUBLIC "-//W3C//DTD SVG 20010904//EN"
 "http://www.w3.org/TR/2001/REC-SVG-20010904/DTD/svg10.dtd">
<svg version="1.0" xmlns="http://www.w3.org/2000/svg"
 width="406.000000pt" height="406.000000pt" viewBox="0 0 406.000000 406.000000"
 preserveAspectRatio="xMidYMid meet">
<metadata>
Created by potrace 1.11, written by Peter Selinger 2001-2013
</metadata>
<g transform="translate(0.000000,406.000000) scale(0.100000,-0.100000)"
fill="#000000" stroke="none">
<path d="M2700 3240 c0 -3 -24 -6 -53 -7 -111 -3 -136 -6 -130 -17 4 -6 -1 -5
-10 3 -9 7 -17 9 -17 3 0 -5 -7 -13 -16 -16 -8 -3 -12 -2 -9 4 3 5 -4 8 -15 7
-11 -1 -20 -5 -20 -9 0 -4 -10 -5 -21 -3 -12 3 -27 1 -32 -2 -6 -4 -25 -8 -42
-10 -16 -2 -48 -6 -70 -9 -22 -3 -50 -7 -62 -7 -13 -1 -23 -6 -23 -10 0 -5 -5
-5 -10 -2 -6 4 -17 1 -25 -5 -11 -9 -15 -9 -15 -1 0 9 -5 9 -21 1 -24 -13 -65
-23 -91 -22 -10 0 -18 -3 -18 -8 0 -5 -7 -7 -15 -4 -8 3 -20 2 -27 -2 -13 -8
-37 -12 -104 -18 -23 -2 -47 -6 -53 -10 -7 -4 -18 -5 -26 -2 -8 3 -15 2 -15
-3 0 -5 -10 -7 -22 -7 -13 1 -27 0 -33 -3 -11 -6 -22 -8 -70 -15 -16 -3 -30
-5 -30 -6 0 -1 -11 -3 -25 -5 -14 -2 -36 -6 -50 -10 -14 -4 -35 -7 -47 -8 -13
-1 -23 -5 -23 -11 0 -5 -3 -6 -7 -3 -3 4 -12 2 -20 -4 -10 -9 -13 -8 -13 2 0
9 -3 10 -8 4 -7 -10 -27 -17 -49 -18 -7 0 -13 -3 -13 -7 0 -3 -8 -6 -17 -7
-10 -1 -31 -7 -48 -14 -16 -7 -36 -13 -44 -15 -8 -1 -18 -9 -22 -16 -5 -7 -9
-9 -9 -4 0 5 -10 1 -22 -10 -12 -10 -18 -13 -14 -6 4 6 2 12 -3 12 -6 0 -11
-4 -11 -8 0 -5 -19 -16 -42 -26 -22 -11 -49 -26 -60 -35 -10 -9 -22 -17 -26
-17 -26 -5 -52 -18 -52 -25 0 -5 -5 -9 -11 -9 -7 0 -18 -8 -26 -17 -10 -12
-12 -13 -8 -3 4 8 -1 6 -9 -4 -9 -11 -16 -17 -16 -13 0 4 -9 -1 -20 -11 -12
-9 -23 -16 -26 -14 -3 2 -14 -7 -25 -19 -10 -12 -19 -18 -19 -14 0 4 -8 -2
-19 -13 -10 -12 -23 -22 -29 -22 -6 0 -27 -16 -47 -35 -19 -20 -35 -33 -35
-29 0 4 -15 -10 -33 -30 -18 -20 -39 -36 -45 -36 -6 0 -20 -10 -32 -22 -11
-12 -30 -23 -42 -25 -16 -2 -19 0 -10 6 16 9 15 20 -1 40 -10 12 -9 13 3 7 8
-4 6 0 -4 8 -11 9 -16 16 -10 16 5 0 -7 14 -26 30 -32 27 -65 36 -110 30 -18
-2 -50 -41 -44 -52 3 -4 1 -8 -4 -8 -5 0 -8 -16 -7 -36 1 -19 -2 -37 -6 -40
-9 -5 -7 -24 5 -43 6 -10 5 -12 -2 -7 -8 5 -12 -1 -12 -16 0 -13 -6 -30 -12
-36 -10 -10 -10 -15 1 -21 9 -6 10 -11 2 -15 -6 -4 -9 -11 -6 -16 3 -5 1 -12
-5 -15 -8 -5 -7 -11 1 -21 7 -9 8 -14 1 -14 -6 0 -13 -14 -17 -31 -4 -16 -23
-47 -43 -68 -48 -48 -92 -113 -92 -133 0 -9 -5 -20 -10 -23 -6 -4 -8 -11 -5
-16 4 -5 2 -9 -3 -9 -5 0 -8 -11 -7 -25 2 -14 0 -25 -4 -25 -4 0 -7 -8 -8 -17
-3 -35 -12 -98 -13 -98 -1 0 -3 -12 -4 -26 -2 -14 -6 -31 -10 -37 -4 -7 -2
-12 6 -12 8 0 9 -3 3 -8 -5 -4 -11 -18 -12 -32 -1 -14 -5 -61 -8 -105 -9 -114
-11 -246 -4 -251 4 -2 7 -20 7 -41 1 -34 8 -78 12 -78 2 0 11 -38 12 -52 1 -7
5 -13 11 -13 5 0 7 -6 4 -12 -2 -7 1 -22 6 -33 6 -11 12 -26 13 -34 2 -8 8
-17 14 -21 7 -4 12 -10 12 -13 0 -19 12 -47 20 -47 5 0 6 -4 3 -10 -3 -5 -1
-10 6 -10 7 0 9 -3 6 -7 -7 -6 31 -38 45 -38 3 0 10 -3 13 -7 4 -4 15 -3 24 1
9 5 19 9 24 10 31 3 57 15 57 27 0 26 1 29 15 50 8 13 10 26 4 35 -5 8 -9 10
-9 4 0 -5 -12 15 -26 45 -15 30 -26 63 -26 73 0 9 -4 17 -11 17 -6 0 -4 8 6
18 11 11 20 13 25 7 6 -10 20 -11 40 -5 4 1 11 2 15 1 5 -1 6 3 3 8 -4 5 3 13
15 16 20 7 85 65 73 65 -4 0 1 11 10 24 9 14 13 33 9 42 -4 12 -3 15 5 10 7
-4 12 -2 12 4 0 6 16 18 36 26 21 9 43 22 51 30 8 8 19 14 25 14 6 0 8 3 5 7
-4 3 3 17 15 30 12 13 18 23 14 23 -4 0 4 10 19 23 15 12 45 39 66 60 21 20
39 35 39 32 0 -3 17 13 39 35 21 22 42 36 46 32 5 -4 5 -2 1 5 -4 7 9 21 34
36 22 13 37 27 33 31 -4 4 0 4 9 1 9 -4 25 -2 35 3 13 8 23 6 37 -6 12 -12 37
-17 80 -18 91 -2 98 -3 91 -14 -4 -6 8 -10 29 -10 48 0 48 0 69 -27 10 -13 22
-21 25 -19 8 5 56 -45 60 -62 1 -7 -3 -12 -9 -12 -8 0 -8 -4 -2 -12 6 -7 10
-20 10 -28 0 -8 4 -40 8 -70 4 -30 8 -63 8 -72 1 -10 4 -18 8 -18 3 0 5 -11 4
-25 -2 -14 1 -25 6 -25 5 0 9 -11 9 -25 0 -14 6 -25 13 -25 9 0 8 -3 -2 -9 -9
-6 -10 -11 -2 -15 6 -4 11 -17 11 -30 0 -12 6 -28 13 -35 8 -10 8 -12 0 -7 -7
4 -6 -5 4 -25 8 -17 16 -43 18 -58 1 -15 4 -32 7 -37 2 -5 3 -15 2 -21 -1 -7
-2 -25 -3 -39 0 -14 -5 -22 -11 -19 -6 3 -7 -1 -4 -9 3 -9 1 -16 -6 -16 -6 0
-8 -5 -5 -10 3 -6 1 -10 -5 -10 -6 0 -9 -4 -6 -8 3 -5 -1 -20 -9 -35 -7 -14
-11 -28 -7 -31 3 -3 0 -6 -6 -6 -7 0 -11 -3 -10 -7 3 -15 -25 -62 -33 -57 -5
3 -9 -2 -9 -10 0 -9 -5 -16 -12 -16 -9 0 -8 -5 2 -15 19 -18 148 -20 166 -2 4
4 13 2 21 -4 7 -7 30 -9 53 -6 26 3 38 1 34 -5 -4 -6 5 -2 20 7 14 10 26 14
26 11 0 -4 9 2 20 12 18 17 25 72 9 72 -8 0 -5 32 5 48 4 7 2 12 -4 12 -8 0
-9 7 -5 18 4 9 8 27 9 39 1 12 5 25 8 28 4 4 4 13 1 21 -3 8 1 22 8 31 12 14
12 16 -1 8 -12 -7 -13 -6 -3 6 7 9 15 38 18 65 2 27 8 69 12 94 4 25 6 48 5
53 -1 4 2 7 6 7 8 0 12 14 13 53 0 9 3 17 7 17 10 0 38 -20 29 -20 -4 0 4 -12
18 -27 14 -15 25 -34 25 -41 0 -7 5 -10 10 -7 6 3 10 -3 10 -15 0 -12 4 -19 9
-15 5 3 12 -3 16 -14 3 -10 17 -31 30 -47 14 -16 25 -35 25 -41 0 -7 4 -13 9
-13 8 0 20 -23 27 -52 1 -5 3 -11 4 -15 1 -5 2 -11 1 -16 0 -4 4 -7 10 -7 8 0
8 -4 0 -14 -8 -10 -9 -16 -1 -21 5 -3 10 -26 10 -50 0 -31 5 -45 18 -51 27
-11 35 -11 63 2 21 11 30 11 45 0 37 -25 83 -27 105 -5 11 11 18 27 15 35 -3
8 0 14 6 14 19 0 49 42 43 62 -3 10 -8 27 -11 38 -3 11 -9 18 -14 15 -6 -4
-22 20 -21 32 0 1 -13 16 -29 34 -17 17 -27 35 -24 40 3 5 2 9 -3 9 -10 0 -33
49 -33 71 0 10 -4 19 -10 21 -5 2 -11 13 -13 25 -2 12 -6 26 -10 29 -4 4 -7
17 -7 29 0 11 -4 25 -9 31 -9 9 -16 42 -27 128 -2 22 -10 46 -16 53 -6 7 -7
13 -4 13 4 0 2 10 -5 21 -6 12 -13 43 -15 70 l-4 48 32 -4 c17 -3 35 -10 40
-17 6 -10 8 -10 8 1 0 11 3 11 15 1 8 -7 21 -10 29 -7 8 3 17 3 20 -1 4 -3 21
-7 39 -9 121 -11 160 -14 222 -16 39 -2 75 -6 81 -9 5 -4 16 -3 24 2 7 4 23 4
36 0 12 -5 25 -6 29 -2 3 3 47 8 98 9 51 2 100 3 109 4 10 0 20 5 23 10 4 5
11 7 16 4 5 -4 9 -1 9 5 0 6 5 8 10 5 6 -4 17 -1 25 5 8 7 15 9 15 4 0 -5 5
-1 11 10 9 15 13 16 20 5 6 -10 9 -10 9 -2 0 10 6 10 24 2 16 -8 23 -18 21
-30 -2 -11 0 -19 4 -19 4 0 7 -48 7 -107 -1 -60 2 -116 6 -125 5 -10 3 -18 -5
-21 -9 -4 -9 -6 1 -6 8 -1 10 -6 5 -13 -4 -7 -8 -24 -9 -38 -2 -47 -16 -155
-21 -163 -4 -7 -12 -45 -17 -87 -2 -8 -6 -24 -10 -35 -18 -45 -19 -51 -20 -65
0 -8 -6 -21 -13 -28 -7 -8 -11 -17 -8 -22 3 -5 0 -10 -5 -12 -6 -2 -12 -13
-13 -25 0 -12 -4 -20 -7 -18 -7 4 -30 -22 -24 -28 3 -3 -9 -15 -26 -27 -16
-12 -28 -25 -25 -30 3 -4 -2 -10 -10 -14 -24 -9 -11 -48 25 -75 19 -14 31 -20
26 -13 -4 6 -2 12 3 12 6 0 11 -4 11 -8 0 -9 42 -8 58 2 7 4 12 2 12 -4 0 -6
5 -8 10 -5 6 4 34 8 63 9 56 3 130 23 123 35 -7 10 20 143 38 184 8 21 19 37
24 37 6 0 13 11 16 25 4 14 13 25 21 25 8 0 12 6 9 13 -2 7 11 31 30 52 27 31
34 35 29 18 -3 -13 -10 -20 -15 -17 -6 4 -8 -2 -3 -15 4 -15 -1 -28 -19 -46
-14 -14 -26 -29 -26 -33 -1 -19 -12 -42 -21 -42 -5 0 -9 -12 -9 -26 0 -17 -4
-23 -12 -18 -8 5 -9 2 -5 -9 3 -9 2 -19 -4 -22 -5 -4 -6 -11 -3 -17 4 -6 -1
-17 -11 -25 -16 -11 -17 -13 -3 -13 15 0 15 -4 2 -45 -14 -40 -30 -54 -69 -60
-60 -10 -76 -50 -21 -53 5 0 12 -5 15 -11 4 -6 29 -13 56 -16 27 -4 52 -8 57
-11 4 -3 8 1 8 8 0 10 2 10 9 -1 6 -9 11 -10 15 -2 4 6 11 9 15 6 5 -2 32 4
62 15 30 11 50 20 44 20 -5 0 -2 5 8 11 9 6 15 14 12 20 -4 5 -2 9 4 9 6 0 8
7 5 15 -4 8 -1 15 6 15 6 0 9 4 5 9 -3 5 2 17 11 25 8 9 12 16 8 16 -3 0 -1 6
5 14 6 8 11 18 10 22 -2 9 24 75 42 107 6 11 8 21 5 24 -3 3 2 12 10 20 8 8
12 18 9 23 -3 4 2 11 11 14 9 4 14 9 10 13 -3 3 1 15 11 25 9 10 12 18 7 18
-5 0 -3 4 5 9 14 9 19 22 23 64 1 9 6 17 11 17 5 0 4 6 -2 14 -8 9 -8 15 -2
18 7 2 5 13 -4 31 -10 19 -10 26 -2 22 7 -4 3 1 -7 9 -11 9 -16 16 -10 16 5 0
2 6 -7 13 -9 7 -16 14 -17 17 -1 6 -21 60 -29 80 -4 8 -8 22 -9 30 -5 25 -12
55 -14 55 -6 0 -10 101 -4 114 4 9 8 22 10 28 1 7 12 24 23 39 11 14 18 30 15
35 -3 5 2 9 11 9 9 0 13 4 10 10 -7 11 39 25 54 16 5 -4 12 -2 16 4 4 6 10 8
15 5 16 -10 59 40 54 61 -3 13 3 27 17 39 13 12 19 14 14 5 -5 -8 2 -5 16 8
13 12 33 29 44 38 11 8 14 12 6 8 -10 -5 -12 -3 -7 5 9 14 36 -4 36 -24 0 -7
14 -18 30 -25 27 -11 33 -11 46 6 26 33 35 54 29 64 -4 6 1 13 9 16 9 3 14 10
11 14 -3 5 2 16 11 24 8 9 13 16 9 16 -3 0 6 21 19 47 14 25 23 50 20 55 -3 4
0 8 7 8 6 0 9 8 6 20 -3 11 0 20 6 20 6 0 7 3 4 7 -4 3 -1 13 6 21 8 10 8 16
1 19 -5 2 -9 17 -8 33 1 16 -6 45 -16 65 -10 19 -14 32 -9 29 5 -3 9 -1 9 5 0
5 -4 12 -9 16 -13 7 -41 64 -41 82 0 7 -4 13 -10 13 -5 0 -10 6 -10 13 0 7 -8
22 -18 33 -15 16 -34 52 -33 61 0 2 -11 15 -24 29 -14 15 -23 29 -21 32 3 2
-6 14 -20 27 -13 12 -24 27 -24 33 0 5 -7 12 -15 16 -8 3 -15 12 -15 21 0 8
-7 15 -17 15 -9 0 -14 3 -10 6 8 8 -25 44 -35 38 -4 -3 -8 3 -8 12 0 10 -3 15
-6 11 -8 -8 -44 25 -38 34 3 5 -7 11 -21 15 -14 3 -25 10 -25 15 0 5 -11 14
-25 21 -13 6 -22 15 -18 21 3 5 0 8 -8 5 -7 -2 -23 6 -35 19 -11 12 -24 20
-27 16 -4 -3 -9 2 -13 11 -3 9 -12 16 -20 16 -8 0 -14 4 -14 8 0 5 -18 18 -40
31 -22 12 -40 27 -40 32 0 6 -4 8 -9 4 -5 -3 -16 2 -24 10 -9 8 -18 15 -22 15
-4 0 -13 6 -20 13 -34 29 -43 35 -48 30 -4 -3 -13 2 -22 10 -9 9 -31 19 -50
23 -19 3 -32 10 -30 15 3 4 -3 6 -15 4 -11 -2 -22 0 -25 5 -3 5 -14 7 -25 5
-11 -2 -20 0 -20 4 0 4 -19 8 -42 10 -23 1 -45 7 -49 12 -9 14 -20 13 -30 -3
-6 -9 -9 -9 -9 -1 0 6 -8 12 -17 12 -55 -1 -113 4 -113 10 0 9 -43 7 -58 -3
-7 -4 -12 -3 -12 1 0 5 -9 9 -20 9 -11 0 -20 -3 -20 -6z"/>
<path d="M3181 844 c0 -11 3 -14 6 -6 3 7 2 16 -1 19 -3 4 -6 -2 -5 -13z"/>
</g>
</svg>
